{
	"asset":{
		"version":"2.0",
		"generator":"Maxon Cinema 4D 2024.4.1 (#200000219)"
	},
	"scenes":[{
		"nodes":[0]
	}],
	"nodes":[{
		"name":"Extrude",
		"translation":[0.0,
		0.862500011920929,
		0.2822839319705963],
		"rotation":[0.0,
		0.0,
		0.0,
		-1.0],
		"scale":[1.0,
		1.0,
		1.0],
		"children":[1,
		2]
	},
	{
		"name":"Extrude-Mat",
		"mesh":0
	},
	{
		"name":"Extrude-Mat",
		"mesh":1
	}],
	"meshes":[{
		"name":"Extrude-Mat",
		"primitives":[{
			"attributes":{
				"POSITION":1,
				"NORMAL":2,
				"TEXCOORD_0":3
			},
			"indices":0,
			"material":0
		}]
	},
	{
		"name":"Extrude-Mat",
		"primitives":[{
			"attributes":{
				"POSITION":5,
				"NORMAL":6,
				"TEXCOORD_0":7
			},
			"indices":4,
			"material":1
		}]
	}],
	"accessors":[{
		"type":"SCALAR",
		"bufferView":0,
		"componentType":5123,
		"count":19584,
		"byteOffset":0,
		"min":[0],
		"max":[19583]
	},
	{
		"type":"VEC3",
		"bufferView":1,
		"componentType":5126,
		"count":19584,
		"byteOffset":0,
		"min":[-0.9149764180183411,
		-0.8634354472160339,
		-0.38637015223503115],
		"max":[0.9149764180183411,
		0.9361666440963745,
		0.7277036309242249]
	},
	{
		"type":"VEC3",
		"bufferView":1,
		"componentType":5126,
		"count":19584,
		"byteOffset":12,
		"min":[-1.0,
		-1.0,
		-1.0],
		"max":[1.0,
		1.0,
		1.0]
	},
	{
		"type":"VEC2",
		"bufferView":1,
		"componentType":5126,
		"count":19584,
		"byteOffset":24,
		"min":[0.0,
		0.0],
		"max":[1.0,
		1.0]
	},
	{
		"type":"SCALAR",
		"bufferView":2,
		"componentType":5123,
		"count":1572,
		"byteOffset":0,
		"min":[0],
		"max":[1571]
	},
	{
		"type":"VEC3",
		"bufferView":3,
		"componentType":5126,
		"count":1572,
		"byteOffset":0,
		"min":[-0.06231995299458504,
		-0.8387837409973145,
		0.33970358967781069],
		"max":[0.4886097311973572,
		-0.44168996810913088,
		0.7277036309242249]
	},
	{
		"type":"VEC3",
		"bufferView":3,
		"componentType":5126,
		"count":1572,
		"byteOffset":12,
		"min":[-1.0,
		-1.0,
		-1.0],
		"max":[1.0,
		1.0,
		1.0]
	},
	{
		"type":"VEC2",
		"bufferView":3,
		"componentType":5126,
		"count":1572,
		"byteOffset":24,
		"min":[0.0,
		0.0],
		"max":[1.0,
		1.0]
	}],
	"bufferViews":[{
		"buffer":0,
		"byteOffset":0,
		"byteLength":39168,
		"target":34963
	},
	{
		"buffer":0,
		"byteOffset":39168,
		"byteLength":626688,
		"target":34962,
		"byteStride":32
	},
	{
		"buffer":1,
		"byteOffset":0,
		"byteLength":3144,
		"target":34963
	},
	{
		"buffer":1,
		"byteOffset":3144,
		"byteLength":50304,
		"target":34962,
		"byteStride":32
	}],
	"buffers":[{
		"uri":"data:application/octet-stream;base64,",
		"byteLength":665856
	},
	{
		"uri":"data:application/octet-stream;base64,",
		"byteLength":53448
	}],
	"materials":[{
		"pbrMetallicRoughness":{
			"baseColorFactor":[0.2999999999999998,
			0.0,
			1.0,
			1.0],
			"metallicFactor":0.0,
			"roughnessFactor":0.20000000298023225
		},
		"emissiveFactor":[0.0,
		0.0,
		0.0],
		"alphaMode":"OPAQUE",
		"doubleSided":false,
		"name":"Mat"
	},
	{
		"pbrMetallicRoughness":{
			"baseColorFactor":[1.0,
			0.0,
			0.0,
			1.0],
			"metallicFactor":0.0,
			"roughnessFactor":0.20000000298023225
		},
		"emissiveFactor":[0.0,
		0.0,
		0.0],
		"alphaMode":"OPAQUE",
		"doubleSided":false,
		"name":"Mat"
	}]
}